#!OML:ASF H:\ManfredETheater\Project 1\Capture day 1\Session 1\subject.ASF
:FULLY-SPECIFIED
:DEGREES
1046
root 0.956975 17.9379 -4.67833 -7.61506 12.939 1.31362
lowerback 11.0699 -1.05664 -0.767486
upperback 0.325672 -1.44196 0.94218
thorax -5.82801 -0.673105 1.6491
lowerneck -14.5591 -3.86769 -4.14894
upperneck 22.7671 -4.7926 1.70241
head 9.76294 -2.38285 0.679363
rclavicle -3.57812e-014 4.37326e-015
rhumerus -45.5953 -8.3239 -51.2183
rradius 44.5399
rwrist 0.263544
rhand -7.484 -12.1488
rfingers 7.12502
rthumb 18.4053 -41.2981
lclavicle -3.57812e-014 4.37326e-015
lhumerus -38.6232 13.9619 53.9152
lradius 58.2674
lwrist -10.6798
lhand -20.3881 -1.17052
lfingers 7.12502
lthumb 5.96513 28.7255
rfemur 1.6196 -7.04159 26.1585
rtibia 24.5486
rfoot -15.403 -4.26746
rtoes 25.4336
lfemur -71.0579 -1.87168 8.69399
ltibia 80.3668
lfoot 12.8421 -24.4353
ltoes 12.6556
1047
root 0.948669 17.947 -4.67915 -7.62617 13.0335 1.28393
lowerback 11.0812 -1.05474 -0.857824
upperback 0.346817 -1.45179 0.928002
thorax -5.80986 -0.675925 1.68663
lowerneck -14.5059 -3.90491 -4.18574
upperneck 22.7664 -4.8573 1.78035
head 9.7579 -2.40754 0.705107
rclavicle -1.57785e-014 -1.19271e-015
rhumerus -45.6883 -8.34414 -51.3368
rradius 44.5416
rwrist 0.247714
rhand -7.37722 -12.0664
rfingers 7.12502
rthumb 18.508 -41.2059
lclavicle -1.57785e-014 -1.19271e-015
lhumerus -38.4829 13.8712 54.0662
lradius 58.2142
lwrist -10.6983
lhand -20.5188 -1.26523
lfingers 7.12502
lthumb 5.83893 28.6343
rfemur 1.79926 -7.06901 26.2063
rtibia 24.1742
rfoot -15.2104 -4.28656
rtoes 25.4774
lfemur -71.2394 -1.98219 8.95423
ltibia 80.0419
lfoot 8.55915 -20.1449
ltoes 13.1605
1048
root 0.940568 17.9561 -4.67984 -7.63468 13.1289 1.25245
lowerback 11.0888 -1.05014 -0.940057
upperback 0.365377 -1.45699 0.9135
thorax -5.79273 -0.676698 1.71847
lowerneck -14.4502 -3.94325 -4.2241
upperneck 22.7709 -4.92262 1.85519
head 9.7543 -2.43304 0.729977
rclavicle -6.08778e-016 1.98785e-015
rhumerus -45.7781 -8.35744 -51.4537
rradius 44.5389
rwrist 0.236989
rhand -7.27575 -11.9876
rfingers 7.12502
rthumb 18.6056 -41.1178
lclavicle -6.08778e-016 1.98785e-015
lhumerus -38.3514 13.7938 54.2221
lradius 58.1844
lwrist -10.6873
lhand -20.6554 -1.358
lfingers 7.12502
lthumb 5.70706 28.5451
rfemur 1.97492 -7.11387 26.2507
rtibia 23.8033
rfoot -15.0203 -4.28932
rtoes 25.5141
lfemur -71.4263 -2.03862 9.11391
ltibia 79.6685
lfoot 5.09831 -15.152
ltoes 14.064
1049
root 0.932653 17.9652 -4.68045 -7.64226 13.2298 1.2198
lowerback 11.0947 -1.04499 -1.01538
upperback 0.38245 -1.46059 0.898643
thorax -5.77644 -0.676881 1.74578
lowerneck -14.3942 -3.98192 -4.26357
upperneck 22.7806 -4.98731 1.9263
head 9.75242 -2.45877 0.753812
rclavicle -2.04748e-014 7.15625e-015
rhumerus -45.8599 -8.36604 -51.5685
rradius 44.5302
rwrist 0.231109
rhand -7.178 -11.9107
rfingers 7.12502
rthumb 18.6996 -41.0319
lclavicle -2.04748e-014 7.15625e-015
lhumerus -38.2304 13.733 54.3805
lradius 58.177
lwrist -10.6542
lhand -20.7947 -1.45059
lfingers 7.12502
lthumb 5.57261 28.4561
rfemur 2.14911 -7.17608 26.2912
rtibia 23.4344
rfoot -14.8332 -4.28071
rtoes 25.5431
lfemur -71.617 -2.05074 9.18105
ltibia 79.2347
lfoot 2.38908 -9.868
ltoes 15.3101
1050
root 0.924941 17.9742 -4.68103 -7.65124 13.3408 1.18536
lowerback 11.1017 -1.04125 -1.08352
upperback 0.399057 -1.46516 0.883733
thorax -5.76138 -0.677732 1.76916
lowerneck -14.3392 -4.0206 -4.30409
upperneck 22.7944 -5.05073 1.99306
head 9.75219 -2.48448 0.776444
rclavicle -7.4917e-015 -1.59028e-015
rhumerus -45.9295 -8.37221 -51.6802
rradius 44.5138
rwrist 0.230264
rhand -7.08367 -11.8345
rfingers 7.12502
rthumb 18.7903 -40.947
lclavicle -7.4917e-015 -1.59028e-015
lhumerus -38.1216 13.6897 54.5402
lradius 58.1914
lwrist -10.6036
lhand -20.935 -1.54323
lfingers 7.12502
lthumb 5.43708 28.367
rfemur 2.32383 -7.2547 26.3291
rtibia 23.0682
rfoot -14.6506 -4.26672
rtoes 25.5635
lfemur -71.8117 -2.02761 9.16478
ltibia 78.7345
lfoot 0.257874 -4.6906
ltoes 16.8009
1051
root 0.917497 17.9829 -4.68161 -7.66427 13.465 1.14711
lowerback 11.1126 -1.04035 -1.14262
upperback 0.416203 -1.47232 0.869547
thorax -5.74806 -0.680083 1.78872
lowerneck -14.2864 -4.05939 -4.34653
upperneck 22.8112 -5.11279 2.05571
head 9.75344 -2.51017 0.798095
rclavicle -2.5432e-014 7.95139e-015
rhumerus -45.9845 -8.37769 -51.788
rradius 44.4895
rwrist 0.23497
rhand -6.99208 -11.7618
rfingers 7.12502
rthumb 18.8784 -40.8657
lclavicle -2.5432e-014 7.95139e-015
lhumerus -38.0258 13.6631 54.701
lradius 58.2257
lwrist -10.5378
lhand -21.0753 -1.63665
lfingers 7.12502
lthumb 5.30163 28.277
rfemur 2.49967 -7.34734 26.3671
rtibia 22.7081
rfoot -14.4752 -4.2539
rtoes 25.5743
lfemur -72.012 -1.97586 9.07306
ltibia 78.1681
lfoot -1.48764 0.0508507
ltoes 18.4047
1052
root 0.91042 17.991 -4.68215 -7.68418 13.6036 1.10225
lowerback 11.1299 -1.04288 -1.18992
upperback 0.434638 -1.48246 0.857146
thorax -5.73712 -0.684172 1.8041
lowerneck -14.2359 -4.0987 -4.39186
upperneck 22.8298 -5.17378 2.11427
head 9.75577 -2.53606 0.8189
rclavicle 3.83903e-015 -3.57812e-015
rhumerus -46.0237 -8.3835 -51.8905
rradius 44.4579
rwrist 0.246626
rhand -6.9032 -11.6974
rfingers 7.12502
rthumb 18.9639 -40.7929
lclavicle 3.83903e-015 -3.57812e-015
lhumerus -37.9435 13.6504 54.8635
lradius 58.2779
lwrist -10.4559
lhand -21.2148 -1.73059
lfingers 7.12502
lthumb 5.1669 28.1864
rfemur 2.67575 -7.45014 26.4094
rtibia 22.3603
rfoot -14.3108 -4.24861
rtoes 25.5749
lfemur -72.2195 -1.89886 8.91058
ltibia 77.5412
lfoot -2.9986 4.12826
ltoes 19.969
1053
root 0.903828 17.9982 -4.68261 -7.71292 13.7555 1.0477
lowerback 11.1547 -1.04852 -1.22228
upperback 0.454761 -1.49472 0.847742
thorax -5.72877 -0.689636 1.81469
lowerneck -14.1868 -4.13911 -4.44129
upperneck 22.8486 -5.2343 2.16889
head 9.7585 -2.56252 0.839059
rclavicle 3.11595e-014 -7.95139e-016
rhumerus -46.0473 -8.38939 -51.9869
rradius 44.4208
rwrist 0.266045
rhand -6.81707 -11.6477
rfingers 7.12502
rthumb 19.0467 -40.7351
lclavicle 3.11595e-014 -7.95139e-016
lhumerus -37.8742 13.648 55.0287
lradius 58.3446
lwrist -10.3541
lhand -21.3524 -1.82487
lfingers 7.12502
lthumb 5.03404 28.0953
rfemur 2.84895 -7.55789 26.4602
rtibia 22.0338
rfoot -14.1622 -4.25681
rtoes 25.5648
lfemur -72.4366 -1.79653 8.67785
ltibia 76.8635
lfoot -4.35682 7.42288
ltoes 21.3519
1054
root 0.897853 18.004 -4.6829 -7.75157 13.9173 0.980543
lowerback 11.1863 -1.05623 -1.23648
upperback 0.476645 -1.50722 0.842474
thorax -5.72269 -0.695624 1.81958
lowerneck -14.1378 -4.18122 -4.49588
upperneck 22.8666 -5.29503 2.21996
head 9.7611 -2.58992 0.858817
rclavicle 2.38666e-014 -9.93923e-015
rhumerus -46.0574 -8.39399 -52.0768
rradius 44.3812
rwrist 0.293419
rhand -6.73445 -11.6194
rfingers 7.12502
rthumb 19.1262 -40.6989
lclavicle 2.38666e-014 -9.93923e-015
lhumerus -37.8164 13.652 55.1979
lradius 58.4215
lwrist -10.2277
lhand -21.4863 -1.91853
lfingers 7.12502
lthumb 4.90476 28.0047
rfemur 3.01486 -7.66501 26.5242
rtibia 21.7382
rfoot -14.0338 -4.28276
rtoes 25.5442
lfemur -72.6646 -1.6659 8.37129
ltibia 76.1483
lfoot -5.58578 9.91479
ltoes 22.4437
1055
root 0.892633 18.0083 -4.68289 -7.80002 14.0847 0.899159
lowerback 11.2224 -1.06452 -1.23018
upperback 0.499991 -1.5176 0.842015
thorax -5.71811 -0.70103 1.81771
lowerneck -14.087 -4.22545 -4.55623
upperneck 22.8829 -5.3565 2.26746
head 9.76297 -2.61858 0.878248
rclavicle -3.21658e-014 2.54444e-014
rhumerus -46.0568 -8.39513 -52.16
rradius 44.3424
rwrist 0.327838
rhand -6.65661 -11.617
rfingers 7.12502
rthumb 19.2011 -40.6891
lclavicle -3.21658e-014 2.54444e-014
lhumerus -37.7682 13.6589 55.3724
lradius 58.5034
lwrist -10.0716
lhand -21.6133 -2.01071
lfingers 7.12502
lthumb 4.7822 27.9153
rfemur 3.16847 -7.76694 26.6039
rtibia 21.4827
rfoot -13.9301 -4.32883
rtoes 25.513
lfemur -72.9043 -1.50281 7.98395
ltibia 75.4107
lfoot -6.68023 11.6578
ltoes 23.179
1056
root 0.888298 18.0109 -4.68246 -7.85689 14.2533 0.803483
lowerback 11.2596 -1.0719 -1.20219
upperback 0.524259 -1.52369 0.846459
thorax -5.71372 -0.704826 1.80809
lowerneck -14.0332 -4.27195 -4.62219
upperneck 22.898 -5.41893 2.311
head 9.76404 -2.64865 0.897175
rclavicle 3.61167e-014 7.55382e-015
rhumerus -46.0483 -8.39071 -52.2367
rradius 44.3074
rwrist 0.368038
rhand -6.58603 -11.6407
rfingers 7.12502
rthumb 19.2689 -40.7061
lclavicle 3.61167e-014 7.55382e-015
lhumerus -37.7274 13.6662 55.5528
lradius 58.5848
lwrist -9.88201
lhand -21.7295 -2.09963
lfingers 7.12502
lthumb 4.66996 27.8289
rfemur 3.30489 -7.86151 26.6999
rtibia 21.2744
rfoot -13.8539 -4.39457
rtoes 25.4711
lfemur -73.1561 -1.3034 7.50741
ltibia 74.6673
lfoot -7.63712 12.7469
ltoes 23.533
1057
root 0.884972 18.0118 -4.68153 -7.92009 14.4191 0.694224
lowerback 11.2939 -1.0772 -1.1518
upperback 0.548739 -1.52382 0.855606
thorax -5.70821 -0.706219 1.78976
lowerneck -13.9755 -4.32053 -4.69313
upperneck 22.9123 -5.48212 2.34997
head 9.76421 -2.68007 0.915334
rclavicle -3.17186e-014 0
rhumerus -46.0342 -8.37921 -52.307
rradius 44.2783
rwrist 0.412123
rhand -6.5251 -11.6879
rfingers 7.12502
rthumb 19.3275 -40.7474
lclavicle -3.17186e-014 0
lhumerus -37.692 13.6725 55.7395
lradius 58.6606
lwrist -9.65795
lhand -21.8316 -2.18367
lfingers 7.12502
lthumb 4.57141 27.747
rfemur 3.42008 -7.94931 26.811
rtibia 21.1178
rfoot -13.8071 -4.47686
rtoes 25.4181
lfemur -73.4197 -1.06527 6.93493
ltibia 73.9341
lfoot -8.46754 13.288
ltoes 23.5009
1058
root 0.882749 18.011 -4.68004 -7.98718 14.5796 0.573441
lowerback 11.3224 -1.07978 -1.07966
upperback 0.572548 -1.5172 0.868833
thorax -5.7008 -0.704816 1.76222
lowerneck -13.9141 -4.37082 -4.7679
upperneck 22.9272 -5.54557 2.38321
head 9.76397 -2.71262 0.932184
rclavicle 3.41661e-014 1.78906e-014
rhumerus -46.0159 -8.35986 -52.3707
rradius 44.2551
rwrist 0.458069
rhand -6.47698 -11.7513
rfingers 7.12502
rthumb 19.3738 -40.8062
lclavicle 3.41661e-014 1.78906e-014
lhumerus -37.6609 13.6776 55.9318
lradius 58.7267
lwrist -9.40127
lhand -21.9157 -2.26022
lfingers 7.12502
lthumb 4.49014 27.6722
rfemur 3.51148 -8.03368 26.934
rtibia 21.0143
rfoot -13.7897 -4.57035
rtoes 25.3537
lfemur -73.6942 -0.788535 6.26238
ltibia 73.2257
lfoot -9.19724 13.3759
ltoes 23.0811
1059
root 0.881711 18.0088 -4.67797 -8.05592 14.7331 0.443845
lowerback 11.343 -1.07935 -0.987141
upperback 0.59494 -1.50371 0.88529
thorax -5.69113 -0.700526 1.72529
lowerneck -13.8496 -4.42227 -4.84523
upperneck 22.944 -5.60862 2.40972
head 9.76377 -2.74599 0.947238
rclavicle -1.49337e-014 1.94809e-014
rhumerus -45.9934 -8.33297 -52.4279
rradius 44.2371
rwrist 0.504415
rhand -6.44515 -11.8216
rfingers 7.12502
rthumb 19.4044 -40.8734
lclavicle -1.49337e-014 1.94809e-014
lhumerus -37.6338 13.6827 56.1283
lradius 58.78
lwrist -9.1175
lhand -21.9796 -2.32878
lfingers 7.12502
lthumb 4.42842 27.6049
rfemur 3.57804 -8.11964 27.0644
rtibia 20.9632
rfoot -13.8007 -4.66792
rtoes 25.2777
lfemur -73.9782 -0.475146 5.48923
ltibia 72.5545
lfoot -9.85431 13.0816
ltoes 22.2551
